<?xml version="1.0" encoding="utf-8" standalone="no"?>
<!DOCTYPE svg PUBLIC "-//W3C//DTD SVG 1.1//EN"
  "http://www.w3.org/Graphics/SVG/1.1/DTD/svg11.dtd">
<svg xmlns:xlink="http://www.w3.org/1999/xlink" width="720pt" height="216pt" viewBox="0 0 720 216" xmlns="http://www.w3.org/2000/svg" version="1.1">
 <metadata>
  <rdf:RDF xmlns:dc="http://purl.org/dc/elements/1.1/" xmlns:cc="http://creativecommons.org/ns#" xmlns:rdf="http://www.w3.org/1999/02/22-rdf-syntax-ns#">
   <cc:Work>
    <dc:type rdf:resource="http://purl.org/dc/dcmitype/StillImage"/>
    <dc:date>2024-12-20T23:55:45.127151</dc:date>
    <dc:format>image/svg+xml</dc:format>
    <dc:creator>
     <cc:Agent>
      <dc:title>Matplotlib v3.7.0, https://matplotlib.org/</dc:title>
     </cc:Agent>
    </dc:creator>
   </cc:Work>
  </rdf:RDF>
 </metadata>
 <defs>
  <style type="text/css">*{stroke-linejoin: round; stroke-linecap: butt}</style>
 </defs>
 <g id="figure_1">
  <g id="patch_1">
   <path d="M 0 216 
L 720 216 
L 720 0 
L 0 0 
z
" style="fill: #ffffff"/>
  </g>
  <g id="axes_1">
   <g id="patch_2">
    <path d="M 378.292188 182.64351 
L 707.45601 182.64351 
L 707.45601 6.799459 
L 378.292188 6.799459 
z
" style="fill: #ffffff"/>
   </g>
   <g id="matplotlib.axis_1">
    <g id="xtick_1">
     <g id="line2d_1">
      <defs>
       <path id="m88929bd7bc" d="M 0 0 
L 0 3.5 
" style="stroke: #000000; stroke-width: 0.8"/>
      </defs>
      <g>
       <use xlink:href="#m88929bd7bc" x="378.292188" y="182.64351" style="stroke: #000000; stroke-width: 0.8"/>
      </g>
     </g>
     <g id="text_1">
      <text style="font: 10px 'DejaVu Sans', 'Bitstream Vera Sans', 'Computer Modern Sans Serif', 'Lucida Grande', 'Verdana', 'Geneva', 'Lucid', 'Arial', 'Helvetica', 'Avant Garde', sans-serif; text-anchor: middle" x="378.292188" y="197.241948" transform="rotate(-0 378.292188 197.241948)">0</text>
     </g>
    </g>
    <g id="xtick_2">
     <g id="line2d_2">
      <g>
       <use xlink:href="#m88929bd7bc" x="444.124952" y="182.64351" style="stroke: #000000; stroke-width: 0.8"/>
      </g>
     </g>
     <g id="text_2">
      <text style="font: 10px 'DejaVu Sans', 'Bitstream Vera Sans', 'Computer Modern Sans Serif', 'Lucida Grande', 'Verdana', 'Geneva', 'Lucid', 'Arial', 'Helvetica', 'Avant Garde', sans-serif; text-anchor: middle" x="444.124952" y="197.241948" transform="rotate(-0 444.124952 197.241948)">100</text>
     </g>
    </g>
    <g id="xtick_3">
     <g id="line2d_3">
      <g>
       <use xlink:href="#m88929bd7bc" x="509.957716" y="182.64351" style="stroke: #000000; stroke-width: 0.8"/>
      </g>
     </g>
     <g id="text_3">
      <text style="font: 10px 'DejaVu Sans', 'Bitstream Vera Sans', 'Computer Modern Sans Serif', 'Lucida Grande', 'Verdana', 'Geneva', 'Lucid', 'Arial', 'Helvetica', 'Avant Garde', sans-serif; text-anchor: middle" x="509.957716" y="197.241948" transform="rotate(-0 509.957716 197.241948)">200</text>
     </g>
    </g>
    <g id="xtick_4">
     <g id="line2d_4">
      <g>
       <use xlink:href="#m88929bd7bc" x="575.790481" y="182.64351" style="stroke: #000000; stroke-width: 0.8"/>
      </g>
     </g>
     <g id="text_4">
      <text style="font: 10px 'DejaVu Sans', 'Bitstream Vera Sans', 'Computer Modern Sans Serif', 'Lucida Grande', 'Verdana', 'Geneva', 'Lucid', 'Arial', 'Helvetica', 'Avant Garde', sans-serif; text-anchor: middle" x="575.790481" y="197.241948" transform="rotate(-0 575.790481 197.241948)">300</text>
     </g>
    </g>
    <g id="xtick_5">
     <g id="line2d_5">
      <g>
       <use xlink:href="#m88929bd7bc" x="641.623245" y="182.64351" style="stroke: #000000; stroke-width: 0.8"/>
      </g>
     </g>
     <g id="text_5">
      <text style="font: 10px 'DejaVu Sans', 'Bitstream Vera Sans', 'Computer Modern Sans Serif', 'Lucida Grande', 'Verdana', 'Geneva', 'Lucid', 'Arial', 'Helvetica', 'Avant Garde', sans-serif; text-anchor: middle" x="641.623245" y="197.241948" transform="rotate(-0 641.623245 197.241948)">400</text>
     </g>
    </g>
    <g id="xtick_6">
     <g id="line2d_6">
      <g>
       <use xlink:href="#m88929bd7bc" x="707.45601" y="182.64351" style="stroke: #000000; stroke-width: 0.8"/>
      </g>
     </g>
     <g id="text_6">
      <text style="font: 10px 'DejaVu Sans', 'Bitstream Vera Sans', 'Computer Modern Sans Serif', 'Lucida Grande', 'Verdana', 'Geneva', 'Lucid', 'Arial', 'Helvetica', 'Avant Garde', sans-serif; text-anchor: middle" x="707.45601" y="197.241948" transform="rotate(-0 707.45601 197.241948)">500</text>
     </g>
    </g>
    <g id="text_7">
     <text style="font: 10px 'DejaVu Sans', 'Bitstream Vera Sans', 'Computer Modern Sans Serif', 'Lucida Grande', 'Verdana', 'Geneva', 'Lucid', 'Arial', 'Helvetica', 'Avant Garde', sans-serif; text-anchor: middle" x="542.874099" y="210.920073" transform="rotate(-0 542.874099 210.920073)">t (s)</text>
    </g>
   </g>
   <g id="matplotlib.axis_2">
    <g id="ytick_1">
     <g id="line2d_7">
      <defs>
       <path id="m5012982814" d="M 0 0 
L -3.5 0 
" style="stroke: #000000; stroke-width: 0.8"/>
      </defs>
      <g>
       <use xlink:href="#m5012982814" x="378.292188" y="182.64351" style="stroke: #000000; stroke-width: 0.8"/>
      </g>
     </g>
     <g id="text_8">
      <text style="font: 10px 'DejaVu Sans', 'Bitstream Vera Sans', 'Computer Modern Sans Serif', 'Lucida Grande', 'Verdana', 'Geneva', 'Lucid', 'Arial', 'Helvetica', 'Avant Garde', sans-serif; text-anchor: end" x="371.292188" y="186.442729" transform="rotate(-0 371.292188 186.442729)">0</text>
     </g>
    </g>
    <g id="ytick_2">
     <g id="line2d_8">
      <g>
       <use xlink:href="#m5012982814" x="378.292188" y="147.4747" style="stroke: #000000; stroke-width: 0.8"/>
      </g>
     </g>
     <g id="text_9">
      <text style="font: 10px 'DejaVu Sans', 'Bitstream Vera Sans', 'Computer Modern Sans Serif', 'Lucida Grande', 'Verdana', 'Geneva', 'Lucid', 'Arial', 'Helvetica', 'Avant Garde', sans-serif; text-anchor: end" x="371.292188" y="151.273918" transform="rotate(-0 371.292188 151.273918)">500</text>
     </g>
    </g>
    <g id="ytick_3">
     <g id="line2d_9">
      <g>
       <use xlink:href="#m5012982814" x="378.292188" y="112.305889" style="stroke: #000000; stroke-width: 0.8"/>
      </g>
     </g>
     <g id="text_10">
      <text style="font: 10px 'DejaVu Sans', 'Bitstream Vera Sans', 'Computer Modern Sans Serif', 'Lucida Grande', 'Verdana', 'Geneva', 'Lucid', 'Arial', 'Helvetica', 'Avant Garde', sans-serif; text-anchor: end" x="371.292188" y="116.105108" transform="rotate(-0 371.292188 116.105108)">1000</text>
     </g>
    </g>
    <g id="ytick_4">
     <g id="line2d_10">
      <g>
       <use xlink:href="#m5012982814" x="378.292188" y="77.137079" style="stroke: #000000; stroke-width: 0.8"/>
      </g>
     </g>
     <g id="text_11">
      <text style="font: 10px 'DejaVu Sans', 'Bitstream Vera Sans', 'Computer Modern Sans Serif', 'Lucida Grande', 'Verdana', 'Geneva', 'Lucid', 'Arial', 'Helvetica', 'Avant Garde', sans-serif; text-anchor: end" x="371.292188" y="80.936298" transform="rotate(-0 371.292188 80.936298)">1500</text>
     </g>
    </g>
    <g id="ytick_5">
     <g id="line2d_11">
      <g>
       <use xlink:href="#m5012982814" x="378.292188" y="41.968269" style="stroke: #000000; stroke-width: 0.8"/>
      </g>
     </g>
     <g id="text_12">
      <text style="font: 10px 'DejaVu Sans', 'Bitstream Vera Sans', 'Computer Modern Sans Serif', 'Lucida Grande', 'Verdana', 'Geneva', 'Lucid', 'Arial', 'Helvetica', 'Avant Garde', sans-serif; text-anchor: end" x="371.292188" y="45.767488" transform="rotate(-0 371.292188 45.767488)">2000</text>
     </g>
    </g>
    <g id="ytick_6">
     <g id="line2d_12">
      <g>
       <use xlink:href="#m5012982814" x="378.292188" y="6.799459" style="stroke: #000000; stroke-width: 0.8"/>
      </g>
     </g>
     <g id="text_13">
      <text style="font: 10px 'DejaVu Sans', 'Bitstream Vera Sans', 'Computer Modern Sans Serif', 'Lucida Grande', 'Verdana', 'Geneva', 'Lucid', 'Arial', 'Helvetica', 'Avant Garde', sans-serif; text-anchor: end" x="371.292188" y="10.598677" transform="rotate(-0 371.292188 10.598677)">2500</text>
     </g>
    </g>
    <g id="text_14">
     <text style="font: 10px 'DejaVu Sans', 'Bitstream Vera Sans', 'Computer Modern Sans Serif', 'Lucida Grande', 'Verdana', 'Geneva', 'Lucid', 'Arial', 'Helvetica', 'Avant Garde', sans-serif; text-anchor: middle" x="339.7625" y="94.721484" transform="rotate(-90 339.7625 94.721484)">distance (mm)</text>
    </g>
   </g>
   <g id="line2d_13">
    <path d="M 378.292188 125.153279 
L 378.950515 125.296076 
L 379.608843 125.459761 
L 379.938007 125.419106 
L 380.596334 124.977363 
L 381.254662 124.356119 
L 381.583826 124.420591 
L 381.91299 124.831364 
L 382.242153 125.604381 
L 383.229645 129.438586 
L 384.5463 138.574181 
L 385.204628 144.445519 
L 385.533792 146.576566 
L 386.192119 152.377754 
L 388.167102 167.1697 
L 388.496266 167.958902 
L 389.154594 170.738408 
L 389.483757 171.450874 
L 390.471249 172.107402 
L 390.800413 171.720497 
L 391.45874 170.346249 
L 392.446232 167.511814 
L 393.10456 164.11121 
L 394.092051 161.077216 
L 394.421215 160.28897 
L 394.750379 159.925549 
L 395.079542 159.742437 
L 395.408706 160.183449 
L 395.73787 160.121109 
L 396.067034 160.381854 
L 396.396198 161.376768 
L 396.725362 161.949038 
L 397.383689 163.550858 
L 397.712853 164.370616 
L 398.042017 164.878109 
L 398.700344 166.803762 
L 399.358672 168.706177 
L 399.687836 169.226314 
L 400.346164 169.133768 
L 400.675327 168.831101 
L 401.662819 166.968889 
L 401.991983 166.659846 
L 402.321147 166.755521 
L 402.65031 166.691709 
L 403.966966 165.962871 
L 404.296129 165.49099 
L 404.625293 166.956702 
L 404.954457 164.341174 
L 405.283621 163.831042 
L 405.941949 162.59149 
L 406.271112 161.971995 
L 406.600276 161.871149 
L 406.92944 162.191949 
L 407.258604 162.302793 
L 407.587768 162.768167 
L 407.916932 163.914983 
L 408.246095 164.429342 
L 409.233587 166.810537 
L 409.891914 167.451249 
L 410.221078 167.884708 
L 410.879406 168.414682 
L 411.20857 168.827496 
L 411.866897 170.268093 
L 412.196061 170.343864 
L 412.525225 170.297015 
L 412.854389 169.892838 
L 413.183553 169.292345 
L 414.500208 165.427313 
L 415.158536 164.403114 
L 415.487699 164.106782 
L 416.146027 164.701564 
L 416.804355 165.84929 
L 417.133519 166.470835 
L 417.462682 166.690574 
L 417.791846 166.75959 
L 419.108501 168.103237 
L 419.437665 168.94715 
L 419.766829 170.112209 
L 420.095993 170.613668 
L 420.425157 170.817657 
L 420.754321 170.698862 
L 421.083484 170.091612 
L 421.741812 168.197581 
L 422.729304 164.982072 
L 424.375123 161.671826 
L 424.704286 161.239682 
L 425.03345 161.144347 
L 425.362614 161.198616 
L 425.691778 160.980309 
L 426.350106 160.984748 
L 427.008433 161.675616 
L 427.337597 162.350163 
L 427.666761 162.614276 
L 428.654252 165.253652 
L 428.983416 165.974786 
L 429.31258 166.301419 
L 429.970908 167.485664 
L 430.629235 169.449483 
L 430.958399 169.840223 
L 431.287563 169.847594 
L 432.275054 168.960414 
L 432.933382 167.390143 
L 433.262546 166.83175 
L 434.250037 166.132818 
L 434.579201 165.861879 
L 435.237529 165.186719 
L 435.566693 164.851056 
L 436.22502 164.555643 
L 436.554184 164.728864 
L 436.883348 162.145089 
L 437.212512 162.487496 
L 437.541676 162.552054 
L 437.870839 162.730381 
L 438.529167 164.250906 
L 439.187495 166.359063 
L 439.516658 167.279919 
L 440.50415 168.370434 
L 440.833314 168.488754 
L 441.162478 168.792192 
L 442.808297 172.51497 
L 443.466624 173.934275 
L 443.795788 173.963533 
L 444.124952 173.654744 
L 444.78328 172.00245 
L 445.112443 170.710986 
L 445.770771 166.898578 
L 446.429099 164.286928 
L 446.758263 163.481919 
L 447.41659 161.333181 
L 447.745754 160.613981 
L 448.074918 160.17757 
L 448.404082 160.038232 
L 448.733246 159.639755 
L 449.062409 162.512312 
L 449.391573 162.704444 
L 450.049901 163.854383 
L 450.379065 161.307986 
L 451.366556 162.801432 
L 451.69572 167.166012 
L 452.024884 167.666065 
L 452.354048 165.534814 
L 453.012375 167.297558 
L 453.670703 169.006292 
L 455.316522 173.664599 
L 456.304013 176.922839 
L 457.620669 180.280381 
L 458.60816 182.128473 
L 458.937324 182.01056 
L 459.595652 180.836371 
L 461.241471 177.886937 
L 463.216454 175.414636 
L 463.545618 175.207101 
L 463.874781 175.336009 
L 465.849764 177.701213 
L 467.824747 178.905806 
L 468.812239 179.347024 
L 470.128894 179.5297 
L 470.787222 179.499701 
L 471.445549 179.27128 
L 473.749696 177.348057 
L 474.408024 176.664591 
L 475.395515 175.331722 
L 476.053843 174.141353 
L 476.71217 172.435737 
L 478.35799 167.780832 
L 479.016317 166.802661 
L 479.345481 166.61502 
L 479.674645 166.62558 
L 480.003809 166.886569 
L 480.332972 167.392197 
L 482.637119 172.30604 
L 482.966283 172.284627 
L 483.295447 171.72515 
L 483.624611 170.699429 
L 483.624611 170.699429 
" clip-path="url(#p07696ed845)" style="fill: none; stroke: #1f77b4; stroke-width: 1.5; stroke-linecap: square"/>
   </g>
   <g id="line2d_14">
    <path d="M 378.292188 150.745293 
L 378.621351 150.877986 
L 378.950515 151.230995 
L 380.596334 154.478593 
L 380.925498 154.760908 
L 381.254662 154.744121 
L 381.583826 154.451428 
L 381.91299 153.81446 
L 382.571317 151.701879 
L 383.558809 147.939026 
L 384.5463 145.489471 
L 385.533792 145.271043 
L 386.192119 145.775868 
L 386.850447 147.529312 
L 387.837938 151.666338 
L 388.167102 152.516245 
L 389.154594 156.866166 
L 391.45874 169.114144 
L 391.787904 169.930422 
L 392.117068 170.236374 
L 392.446232 170.145979 
L 392.775396 169.937419 
L 393.10456 169.546261 
L 393.433723 169.494807 
L 394.092051 168.972137 
L 395.079542 167.841062 
L 395.73787 166.934529 
L 396.396198 166.478542 
L 397.054525 166.614301 
L 398.042017 165.344462 
L 399.029508 163.140742 
L 399.687836 160.792875 
L 400.346164 159.019157 
L 400.675327 158.34936 
L 401.004491 158.115388 
L 401.333655 158.039701 
L 401.662819 158.359035 
L 402.979474 160.486016 
L 403.637802 162.003512 
L 403.966966 162.575973 
L 405.283621 166.877639 
L 405.612785 167.387529 
L 406.271112 168.931683 
L 406.600276 169.014629 
L 407.258604 168.854152 
L 409.233587 171.219619 
L 409.891914 171.999473 
L 410.221078 171.793012 
L 410.550242 171.276485 
L 411.20857 169.044292 
L 411.537734 167.567959 
L 411.866897 167.368959 
L 412.525225 165.360464 
L 413.183553 163.599844 
L 413.512717 162.934642 
L 413.84188 162.608104 
L 414.171044 162.041149 
L 414.500208 162.308503 
L 414.829372 162.058212 
L 415.158536 162.645541 
L 415.487699 159.765688 
L 416.146027 160.217342 
L 416.475191 160.249271 
L 416.804355 163.827489 
L 417.133519 164.202242 
L 417.462682 165.204072 
L 417.791846 165.629226 
L 418.12101 166.757247 
L 418.450174 164.210281 
L 418.779338 165.171318 
L 419.108501 168.12285 
L 419.766829 168.850363 
L 420.095993 169.461287 
L 420.425157 168.067547 
L 421.083484 169.494859 
L 421.412648 169.576395 
L 421.741812 169.080981 
L 422.729304 167.025376 
L 423.387631 166.287233 
L 423.716795 166.244464 
L 424.045959 166.00143 
L 425.03345 165.7271 
L 425.362614 167.876483 
L 425.691778 165.632282 
L 426.020942 165.73213 
L 426.350106 165.60591 
L 427.008433 165.713661 
L 427.337597 166.153212 
L 427.666761 169.956759 
L 427.995925 170.490624 
L 428.325089 168.947321 
L 428.654252 169.231497 
L 428.983416 169.305359 
L 429.31258 168.797252 
L 429.970908 167.238352 
L 430.300071 166.681346 
L 430.629235 167.643122 
L 430.958399 167.499877 
L 431.287563 167.649765 
L 432.275054 167.443734 
L 432.604218 165.276888 
L 432.933382 165.308829 
L 433.262546 164.98475 
L 433.59171 164.835387 
L 434.250037 164.317983 
L 434.908365 164.188833 
L 435.237529 164.441326 
L 435.895856 165.543077 
L 437.212512 168.497525 
L 437.541676 168.558927 
L 437.870839 168.790551 
L 438.858331 167.627603 
L 439.187495 167.635254 
L 439.845822 168.063065 
L 440.174986 168.007982 
L 440.833314 167.496957 
L 441.162478 167.084836 
L 442.149969 164.426043 
L 442.479133 165.774329 
L 442.808297 165.78802 
L 444.124952 166.417711 
L 444.454116 167.043423 
L 444.78328 167.345497 
L 445.112443 167.844245 
L 446.099935 168.495189 
L 446.758263 169.559773 
L 447.087426 170.40702 
L 447.745754 171.357181 
L 448.074918 171.427256 
L 448.404082 171.117769 
L 449.062409 169.728373 
L 450.379065 165.824606 
L 451.037392 164.792899 
L 451.69572 164.066045 
L 452.024884 163.905373 
L 452.683211 163.189074 
L 453.012375 163.474442 
L 453.341539 163.546184 
L 453.670703 163.461292 
L 453.999867 163.534087 
L 454.32903 163.886842 
L 454.658194 164.000005 
L 454.987358 164.270995 
L 455.316522 164.871571 
L 455.97485 167.35487 
L 456.304013 169.00283 
L 456.633177 169.959443 
L 456.962341 170.085076 
L 457.620669 169.057839 
L 457.949833 168.283068 
L 458.278996 168.286037 
L 458.937324 166.649799 
L 459.266488 165.183277 
L 459.924815 163.966704 
L 460.583143 163.160058 
L 461.241471 163.108009 
L 461.570635 163.277562 
L 461.899798 163.621153 
L 462.228962 164.244268 
L 462.558126 166.049675 
L 462.88729 166.913002 
L 464.203945 171.516906 
L 464.533109 172.343873 
L 465.5206 173.469004 
L 465.849764 173.486165 
L 466.178928 173.27213 
L 466.508092 172.766076 
L 466.837256 172.76326 
L 467.824747 170.502897 
L 468.483075 168.606777 
L 469.470566 165.216386 
L 470.458058 163.393853 
L 470.787222 163.171618 
L 471.116385 163.220154 
L 471.445549 163.544452 
L 471.774713 164.09019 
L 472.762205 166.735123 
L 473.420532 169.142821 
L 474.408024 171.95951 
L 475.066351 172.868843 
L 475.395515 173.194663 
L 476.053843 173.443432 
L 476.383007 173.418279 
L 476.71217 173.229014 
L 477.370498 171.98727 
L 478.687153 167.8999 
L 479.674645 164.735335 
L 480.332972 163.229742 
L 480.9913 162.111876 
L 481.649628 161.504671 
L 482.307955 161.339195 
L 482.966283 161.590008 
L 483.624611 162.219923 
L 483.624611 162.219923 
" clip-path="url(#p07696ed845)" style="fill: none; stroke: #ff7f0e; stroke-width: 1.5; stroke-linecap: square"/>
   </g>
   <g id="line2d_15">
    <path d="M 378.292188 136.713543 
L 378.621351 136.80942 
L 378.950515 137.050187 
L 379.279679 137.54171 
L 379.608843 138.254073 
L 380.596334 141.748254 
L 381.583826 145.364283 
L 382.242153 147.38312 
L 382.900481 148.576722 
L 383.229645 150.052026 
L 383.558809 150.699503 
L 383.887972 151.035355 
L 384.5463 151.224904 
L 384.875464 151.49548 
L 385.533792 151.100913 
L 385.862955 151.161622 
L 386.192119 150.874441 
L 386.850447 151.506276 
L 387.179611 152.027459 
L 387.508775 152.7924 
L 388.167102 155.297979 
L 389.154594 160.787844 
L 390.142085 166.735963 
L 390.471249 167.955943 
L 390.800413 168.555429 
L 391.129577 168.233784 
L 391.45874 167.114516 
L 392.117068 163.373557 
L 394.421215 147.806781 
L 395.079542 144.264623 
L 395.73787 140.921207 
L 396.067034 139.762527 
L 396.396198 139.150564 
L 397.054525 137.12862 
L 398.371181 131.818865 
L 400.017 122.235011 
L 401.333655 112.384542 
L 401.991983 108.998109 
L 402.321147 107.908709 
L 402.979474 106.829108 
L 403.308638 107.11163 
L 403.637802 107.905194 
L 404.625293 111.986096 
L 404.954457 113.529461 
L 405.612785 118.43634 
L 407.916932 138.69166 
L 408.246095 135.561787 
L 409.891914 147.321623 
L 410.221078 154.197537 
L 411.20857 159.311318 
L 411.537734 155.469844 
L 411.866897 160.920873 
L 412.196061 161.725053 
L 412.525225 161.57575 
L 412.854389 161.632183 
L 413.183553 161.832586 
L 413.512717 161.507485 
L 413.84188 161.52675 
L 414.829372 159.316393 
L 415.487699 158.482462 
L 415.816863 158.226283 
L 416.146027 158.136783 
L 416.475191 158.651781 
L 418.450174 163.091642 
L 418.779338 164.131947 
L 419.108501 164.666199 
L 419.437665 165.822936 
L 420.425157 167.305257 
L 421.083484 169.31631 
L 423.387631 174.907442 
L 424.045959 176.496251 
L 424.704286 177.896477 
L 425.03345 178.078309 
L 425.362614 177.782632 
L 425.691778 180.349759 
L 426.020942 180.041627 
L 426.350106 176.248465 
L 426.679269 177.929749 
L 428.654252 171.709314 
L 429.31258 168.844232 
L 430.958399 159.713955 
L 431.945891 156.110108 
L 432.275054 155.366063 
L 432.933382 154.925003 
L 433.262546 155.014473 
L 433.920874 156.024298 
L 434.250037 156.064148 
L 434.579201 156.349107 
L 435.566693 159.670433 
L 435.895856 160.42267 
L 437.212512 164.953033 
L 437.541676 165.730655 
L 438.200003 167.831325 
L 439.187495 169.653863 
L 439.516658 170.041704 
L 441.820805 174.947241 
L 442.149969 175.523443 
L 442.479133 175.603024 
L 442.808297 175.345096 
L 443.466624 173.72644 
L 444.124952 171.409325 
L 446.099935 163.319605 
L 446.758263 161.336595 
L 447.087426 160.84781 
L 447.41659 160.711286 
L 447.745754 157.933818 
L 448.074918 160.413876 
L 448.404082 160.339679 
L 448.733246 160.915623 
L 449.062409 158.187593 
L 449.720737 158.892225 
L 450.049901 159.556898 
L 450.379065 159.791646 
L 454.32903 169.514789 
L 454.658194 169.938158 
L 454.987358 170.063921 
L 455.316522 169.72605 
L 455.97485 168.60398 
L 456.304013 168.313569 
L 456.633177 167.813366 
L 457.620669 165.786022 
L 458.278996 164.661283 
L 458.60816 164.219759 
L 458.937324 164.0001 
L 459.266488 163.974755 
L 459.924815 164.427152 
L 460.583143 165.49897 
L 460.912307 166.18599 
L 462.88729 171.981126 
L 463.545618 172.859448 
L 463.874781 173.073239 
L 464.203945 173.083637 
L 464.862273 172.710189 
L 465.5206 171.923797 
L 465.849764 171.394482 
L 466.178928 170.652285 
L 468.153911 164.439041 
L 468.812239 163.121628 
L 469.470566 162.136468 
L 470.128894 161.558158 
L 470.787222 161.411413 
L 471.774713 161.646083 
L 472.433041 162.37699 
L 472.762205 162.900344 
L 474.07886 165.72739 
L 474.408024 166.059851 
L 474.737187 166.134621 
L 475.066351 165.948343 
L 475.395515 165.539528 
L 476.71217 162.555762 
L 477.370498 162.001666 
L 477.699662 162.082971 
L 478.028826 162.369258 
L 478.687153 163.724776 
L 479.345481 166.264984 
L 480.9913 172.712874 
L 481.649628 174.22219 
L 482.307955 175.059236 
L 482.637119 175.161135 
L 482.966283 175.069818 
L 483.624611 174.485107 
L 483.624611 174.485107 
" clip-path="url(#p07696ed845)" style="fill: none; stroke: #2ca02c; stroke-width: 1.5; stroke-linecap: square"/>
   </g>
   <g id="patch_3">
    <path d="M 378.292188 182.64351 
L 378.292188 6.799459 
" style="fill: none; stroke: #000000; stroke-width: 0.8; stroke-linejoin: miter; stroke-linecap: square"/>
   </g>
   <g id="patch_4">
    <path d="M 707.45601 182.64351 
L 707.45601 6.799459 
" style="fill: none; stroke: #000000; stroke-width: 0.8; stroke-linejoin: miter; stroke-linecap: square"/>
   </g>
   <g id="patch_5">
    <path d="M 378.292188 182.64351 
L 707.45601 182.64351 
" style="fill: none; stroke: #000000; stroke-width: 0.8; stroke-linejoin: miter; stroke-linecap: square"/>
   </g>
   <g id="patch_6">
    <path d="M 378.292188 6.799459 
L 707.45601 6.799459 
" style="fill: none; stroke: #000000; stroke-width: 0.8; stroke-linejoin: miter; stroke-linecap: square"/>
   </g>
  </g>
 </g>
 <defs>
  <clipPath id="p07696ed845">
   <rect x="378.292188" y="6.799459" width="329.163822" height="175.844051"/>
  </clipPath>
 </defs>
</svg>
